<svg xmlns="http://www.w3.org/2000/svg" xmlns:xlink="http://www.w3.org/1999/xlink" width="1366" zoomAndPan="magnify" viewBox="0 0 1024.5 1005.75" height="1341" preserveAspectRatio="xMidYMid meet" version="1.2"><defs><clipPath id="3c8417ad3a"><path d="M 9.371094 0.121094 L 1014.628906 0.121094 L 1014.628906 1005.378906 L 9.371094 1005.378906 Z M 9.371094 0.121094 "/></clipPath></defs><g id="7a63457e1b"><g clip-rule="nonzero" clip-path="url(#3c8417ad3a)"><path style=" stroke:none;fill-rule:nonzero;fill:#cc9109;fill-opacity:1;" d="M 512 1005.378906 C 520.226562 1005.378906 528.445312 1005.179688 536.664062 1004.773438 C 544.878906 1004.371094 553.082031 1003.765625 561.265625 1002.960938 C 569.453125 1002.152344 577.613281 1001.144531 585.75 999.941406 C 593.886719 998.734375 601.992188 997.328125 610.058594 995.722656 C 618.125 994.117188 626.148438 992.316406 634.128906 990.316406 C 642.109375 988.316406 650.035156 986.125 657.90625 983.738281 C 665.777344 981.347656 673.585938 978.769531 681.332031 975.996094 C 689.074219 973.226562 696.75 970.265625 704.347656 967.121094 C 711.949219 963.972656 719.464844 960.640625 726.902344 957.121094 C 734.339844 953.605469 741.683594 949.90625 748.9375 946.03125 C 756.191406 942.152344 763.347656 938.097656 770.402344 933.871094 C 777.457031 929.640625 784.40625 925.242188 791.246094 920.671875 C 798.085938 916.101562 804.808594 911.367188 811.417969 906.464844 C 818.023438 901.566406 824.507812 896.507812 830.863281 891.289062 C 837.222656 886.070312 843.449219 880.699219 849.546875 875.175781 C 855.640625 869.648438 861.597656 863.980469 867.414062 858.164062 C 873.230469 852.347656 878.898438 846.390625 884.425781 840.296875 C 889.949219 834.199219 895.320312 827.972656 900.539062 821.613281 C 905.757812 815.257812 910.816406 808.773438 915.714844 802.167969 C 920.617188 795.558594 925.351562 788.835938 929.921875 781.996094 C 934.492188 775.15625 938.890625 768.207031 943.121094 761.152344 C 947.347656 754.097656 951.402344 746.941406 955.28125 739.6875 C 959.15625 732.433594 962.855469 725.089844 966.371094 717.652344 C 969.890625 710.214844 973.222656 702.699219 976.371094 695.097656 C 979.515625 687.5 982.476562 679.824219 985.246094 672.082031 C 988.019531 664.335938 990.597656 656.527344 992.988281 648.65625 C 995.375 640.785156 997.566406 632.859375 999.566406 624.878906 C 1001.566406 616.898438 1003.367188 608.875 1004.972656 600.808594 C 1006.578125 592.742188 1007.984375 584.636719 1009.1875 576.5 C 1010.394531 568.363281 1011.402344 560.203125 1012.210938 552.015625 C 1013.015625 543.832031 1013.621094 535.628906 1014.023438 527.414062 C 1014.429688 519.195312 1014.628906 510.976562 1014.628906 502.75 C 1014.628906 494.523438 1014.429688 486.304688 1014.023438 478.085938 C 1013.621094 469.871094 1013.015625 461.671875 1012.210938 453.484375 C 1011.402344 445.296875 1010.398438 437.136719 1009.191406 429 C 1007.984375 420.863281 1006.578125 412.757812 1004.972656 404.691406 C 1003.367188 396.625 1001.566406 388.601562 999.566406 380.621094 C 997.566406 372.640625 995.375 364.714844 992.988281 356.84375 C 990.597656 348.972656 988.019531 341.164062 985.246094 333.417969 C 982.476562 325.675781 979.515625 318 976.371094 310.402344 C 973.222656 302.800781 969.890625 295.285156 966.371094 287.847656 C 962.855469 280.410156 959.15625 273.066406 955.28125 265.8125 C 951.402344 258.558594 947.347656 251.402344 943.121094 244.347656 C 938.890625 237.292969 934.492188 230.34375 929.921875 223.503906 C 925.351562 216.664062 920.617188 209.941406 915.714844 203.332031 C 910.816406 196.726562 905.757812 190.242188 900.539062 183.886719 C 895.320312 177.527344 889.949219 171.300781 884.425781 165.203125 C 878.898438 159.109375 873.230469 153.152344 867.414062 147.335938 C 861.597656 141.519531 855.640625 135.851562 849.546875 130.324219 C 843.449219 124.800781 837.222656 119.429688 830.863281 114.210938 C 824.507812 108.992188 818.023438 103.933594 811.417969 99.035156 C 804.808594 94.132812 798.085938 89.398438 791.246094 84.828125 C 784.40625 80.257812 777.457031 75.859375 770.402344 71.628906 C 763.347656 67.402344 756.191406 63.347656 748.9375 59.46875 C 741.683594 55.59375 734.339844 51.894531 726.902344 48.378906 C 719.464844 44.859375 711.949219 41.527344 704.347656 38.378906 C 696.75 35.234375 689.074219 32.273438 681.332031 29.503906 C 673.585938 26.730469 665.777344 24.152344 657.90625 21.761719 C 650.035156 19.375 642.109375 17.183594 634.128906 15.183594 C 626.148438 13.183594 618.125 11.382812 610.058594 9.777344 C 601.992188 8.171875 593.886719 6.769531 585.75 5.5625 C 577.613281 4.355469 569.453125 3.347656 561.265625 2.539062 C 553.082031 1.734375 544.878906 1.128906 536.664062 0.726562 C 528.445312 0.320312 520.226562 0.121094 512 0.121094 C 503.773438 0.121094 495.554688 0.320312 487.335938 0.726562 C 479.121094 1.128906 470.921875 1.734375 462.734375 2.539062 C 454.546875 3.347656 446.386719 4.355469 438.25 5.5625 C 430.113281 6.769531 422.007812 8.171875 413.941406 9.777344 C 405.875 11.382812 397.851562 13.183594 389.871094 15.183594 C 381.890625 17.183594 373.964844 19.375 366.09375 21.761719 C 358.222656 24.152344 350.414062 26.730469 342.667969 29.503906 C 334.925781 32.273438 327.25 35.234375 319.652344 38.378906 C 312.050781 41.527344 304.535156 44.859375 297.097656 48.378906 C 289.660156 51.894531 282.316406 55.59375 275.0625 59.46875 C 267.808594 63.347656 260.652344 67.402344 253.597656 71.628906 C 246.542969 75.859375 239.59375 80.257812 232.753906 84.828125 C 225.914062 89.398438 219.191406 94.132812 212.582031 99.035156 C 205.976562 103.933594 199.492188 108.992188 193.136719 114.210938 C 186.777344 119.429688 180.550781 124.800781 174.453125 130.324219 C 168.359375 135.851562 162.402344 141.519531 156.585938 147.335938 C 150.769531 153.152344 145.101562 159.109375 139.574219 165.203125 C 134.050781 171.300781 128.679688 177.527344 123.460938 183.886719 C 118.242188 190.242188 113.183594 196.726562 108.285156 203.332031 C 103.382812 209.941406 98.648438 216.664062 94.078125 223.503906 C 89.507812 230.34375 85.109375 237.292969 80.878906 244.347656 C 76.652344 251.402344 72.597656 258.558594 68.71875 265.8125 C 64.84375 273.066406 61.144531 280.410156 57.628906 287.847656 C 54.109375 295.285156 50.777344 302.800781 47.628906 310.402344 C 44.484375 318 41.523438 325.675781 38.753906 333.417969 C 35.980469 341.164062 33.402344 348.972656 31.011719 356.84375 C 28.625 364.714844 26.433594 372.640625 24.433594 380.621094 C 22.433594 388.601562 20.632812 396.625 19.027344 404.691406 C 17.421875 412.757812 16.019531 420.863281 14.8125 429 C 13.605469 437.136719 12.597656 445.296875 11.789062 453.484375 C 10.984375 461.671875 10.378906 469.871094 9.976562 478.085938 C 9.570312 486.304688 9.371094 494.523438 9.371094 502.75 C 9.371094 510.976562 9.570312 519.195312 9.976562 527.414062 C 10.378906 535.628906 10.984375 543.832031 11.789062 552.015625 C 12.597656 560.203125 13.605469 568.363281 14.8125 576.5 C 16.019531 584.636719 17.421875 592.742188 19.027344 600.808594 C 20.632812 608.875 22.433594 616.898438 24.433594 624.878906 C 26.433594 632.859375 28.625 640.785156 31.011719 648.65625 C 33.402344 656.527344 35.980469 664.335938 38.753906 672.082031 C 41.523438 679.824219 44.484375 687.5 47.628906 695.097656 C 50.777344 702.699219 54.109375 710.214844 57.628906 717.652344 C 61.144531 725.089844 64.84375 732.433594 68.71875 739.6875 C 72.597656 746.941406 76.652344 754.097656 80.878906 761.152344 C 85.109375 768.207031 89.507812 775.15625 94.078125 781.996094 C 98.648438 788.835938 103.382812 795.558594 108.285156 802.167969 C 113.183594 808.773438 118.242188 815.257812 123.460938 821.613281 C 128.679688 827.972656 134.050781 834.199219 139.574219 840.296875 C 145.101562 846.390625 150.769531 852.347656 156.585938 858.164062 C 162.402344 863.980469 168.359375 869.648438 174.453125 875.175781 C 180.550781 880.699219 186.777344 886.070312 193.136719 891.289062 C 199.492188 896.507812 205.976562 901.566406 212.582031 906.464844 C 219.191406 911.367188 225.914062 916.101562 232.753906 920.671875 C 239.59375 925.242188 246.542969 929.640625 253.597656 933.871094 C 260.652344 938.097656 267.808594 942.152344 275.0625 946.03125 C 282.316406 949.90625 289.660156 953.605469 297.097656 957.121094 C 304.535156 960.640625 312.050781 963.972656 319.652344 967.121094 C 327.25 970.265625 334.925781 973.226562 342.667969 975.996094 C 350.414062 978.769531 358.222656 981.347656 366.09375 983.738281 C 373.964844 986.125 381.890625 988.316406 389.871094 990.316406 C 397.851562 992.316406 405.875 994.117188 413.941406 995.722656 C 422.007812 997.328125 430.113281 998.730469 438.25 999.9375 C 446.386719 1001.144531 454.546875 1002.152344 462.734375 1002.960938 C 470.921875 1003.765625 479.121094 1004.371094 487.335938 1004.773438 C 495.554688 1005.179688 503.773438 1005.378906 512 1005.378906 Z M 512 1005.378906 "/></g><path style=" stroke:none;fill-rule:nonzero;fill:#ffffff;fill-opacity:1;" d="M 825.792969 592.257812 C 825.792969 581.320312 821.621094 570.382812 813.285156 562.039062 L 512 260.785156 L 210.742188 562.039062 C 194.058594 578.726562 194.046875 605.789062 210.742188 622.496094 C 227.429688 639.183594 254.511719 639.183594 271.191406 622.496094 L 512 381.675781 L 752.820312 622.496094 C 769.515625 639.183594 796.578125 639.183594 813.285156 622.496094 C 821.621094 614.152344 825.792969 603.207031 825.792969 592.257812 Z M 825.792969 592.257812 "/></g></svg>