<svg xmlns="http://www.w3.org/2000/svg" xmlns:xlink="http://www.w3.org/1999/xlink" width="1366" zoomAndPan="magnify" viewBox="0 0 1024.5 1020.75" height="1361" preserveAspectRatio="xMidYMid meet" version="1.2"><defs><clipPath id="49e4be9e7c"><path d="M 9.488281 15.476562 L 1014.011719 15.476562 L 1014.011719 1020 L 9.488281 1020 Z M 9.488281 15.476562 "/></clipPath></defs><g id="f13ec93cfa"><g clip-rule="nonzero" clip-path="url(#49e4be9e7c)"><path style=" stroke:none;fill-rule:nonzero;fill:#004aad;fill-opacity:1;" d="M 511.75 1020 C 519.972656 1020 528.183594 1019.800781 536.394531 1019.394531 C 544.605469 1018.992188 552.800781 1018.386719 560.980469 1017.582031 C 569.160156 1016.777344 577.316406 1015.769531 585.445312 1014.566406 C 593.578125 1013.359375 601.675781 1011.953125 609.738281 1010.351562 C 617.796875 1008.746094 625.816406 1006.945312 633.789062 1004.949219 C 641.765625 1002.949219 649.683594 1000.761719 657.550781 998.375 C 665.414062 995.984375 673.21875 993.410156 680.957031 990.636719 C 688.695312 987.871094 696.363281 984.914062 703.957031 981.769531 C 711.554688 978.625 719.0625 975.292969 726.496094 971.777344 C 733.925781 968.265625 741.265625 964.566406 748.515625 960.695312 C 755.761719 956.820312 762.914062 952.769531 769.964844 948.542969 C 777.011719 944.316406 783.957031 939.921875 790.792969 935.355469 C 797.625 930.789062 804.34375 926.058594 810.949219 921.160156 C 817.550781 916.261719 824.027344 911.207031 830.378906 905.992188 C 836.734375 900.777344 842.957031 895.410156 849.050781 889.890625 C 855.140625 884.367188 861.09375 878.703125 866.902344 872.894531 C 872.714844 867.082031 878.378906 861.128906 883.902344 855.039062 C 889.421875 848.945312 894.789062 842.722656 900.003906 836.367188 C 905.21875 830.019531 910.273438 823.539062 915.167969 816.9375 C 920.066406 810.332031 924.800781 803.617188 929.367188 796.78125 C 933.933594 789.945312 938.328125 783 942.554688 775.953125 C 946.777344 768.902344 950.832031 761.75 954.707031 754.503906 C 958.578125 747.253906 962.277344 739.917969 965.789062 732.484375 C 969.304688 725.050781 972.636719 717.542969 975.78125 709.945312 C 978.921875 702.355469 981.882812 694.683594 984.648438 686.945312 C 987.421875 679.207031 989.996094 671.402344 992.386719 663.539062 C 994.769531 655.671875 996.960938 647.753906 998.960938 639.777344 C 1000.957031 631.804688 1002.757812 623.785156 1004.363281 615.726562 C 1005.964844 607.664062 1007.371094 599.566406 1008.574219 591.433594 C 1009.78125 583.304688 1010.785156 575.148438 1011.59375 566.96875 C 1012.398438 558.792969 1013.003906 550.59375 1013.40625 542.386719 C 1013.8125 534.171875 1014.011719 525.960938 1014.011719 517.738281 C 1014.011719 509.519531 1013.8125 501.304688 1013.40625 493.09375 C 1013.003906 484.882812 1012.398438 476.691406 1011.59375 468.507812 C 1010.785156 460.328125 1009.785156 452.175781 1008.578125 444.042969 C 1007.371094 435.914062 1005.964844 427.8125 1004.363281 419.753906 C 1002.757812 411.691406 1000.957031 403.675781 998.960938 395.699219 C 996.960938 387.726562 994.769531 379.804688 992.386719 371.941406 C 989.996094 364.074219 987.421875 356.273438 984.648438 348.53125 C 981.882812 340.792969 978.921875 333.125 975.78125 325.53125 C 972.636719 317.9375 969.304688 310.425781 965.789062 302.996094 C 962.277344 295.5625 958.578125 288.222656 954.707031 280.976562 C 950.832031 273.726562 946.777344 266.574219 942.554688 259.527344 C 938.328125 252.476562 933.933594 245.53125 929.367188 238.699219 C 924.800781 231.863281 920.066406 225.144531 915.167969 218.539062 C 910.273438 211.941406 905.21875 205.460938 900.003906 199.109375 C 894.789062 192.753906 889.421875 186.53125 883.902344 180.441406 C 878.378906 174.351562 872.714844 168.398438 866.902344 162.585938 C 861.09375 156.773438 855.140625 151.109375 849.050781 145.585938 C 842.957031 140.066406 836.734375 134.699219 830.378906 129.484375 C 824.027344 124.269531 817.550781 119.214844 810.949219 114.320312 C 804.34375 109.421875 797.625 104.691406 790.792969 100.125 C 783.957031 95.554688 777.011719 91.160156 769.964844 86.933594 C 762.914062 82.710938 755.761719 78.660156 748.515625 74.78125 C 741.265625 70.910156 733.925781 67.214844 726.496094 63.699219 C 719.0625 60.183594 711.554688 56.855469 703.957031 53.707031 C 696.363281 50.566406 688.695312 47.605469 680.957031 44.839844 C 673.21875 42.066406 665.414062 39.492188 657.550781 37.101562 C 649.683594 34.71875 641.765625 32.527344 633.789062 30.53125 C 625.816406 28.53125 617.796875 26.730469 609.738281 25.128906 C 601.675781 23.523438 593.578125 22.121094 585.445312 20.914062 C 577.316406 19.710938 569.160156 18.703125 560.980469 17.894531 C 552.800781 17.089844 544.605469 16.484375 536.394531 16.082031 C 528.183594 15.675781 519.972656 15.476562 511.75 15.476562 C 503.53125 15.476562 495.316406 15.675781 487.105469 16.082031 C 478.894531 16.484375 470.703125 17.089844 462.519531 17.894531 C 454.339844 18.703125 446.183594 19.710938 438.054688 20.914062 C 429.921875 22.121094 421.824219 23.523438 413.761719 25.128906 C 405.703125 26.730469 397.683594 28.53125 389.710938 30.53125 C 381.734375 32.527344 373.816406 34.71875 365.949219 37.101562 C 358.085938 39.492188 350.28125 42.066406 342.542969 44.839844 C 334.804688 47.605469 327.136719 50.566406 319.542969 53.707031 C 311.949219 56.855469 304.4375 60.183594 297.003906 63.699219 C 289.574219 67.214844 282.234375 70.910156 274.984375 74.78125 C 267.738281 78.660156 260.585938 82.710938 253.539062 86.933594 C 246.488281 91.160156 239.542969 95.554688 232.707031 100.125 C 225.875 104.691406 219.15625 109.421875 212.550781 114.320312 C 205.949219 119.214844 199.472656 124.269531 193.121094 129.484375 C 186.765625 134.699219 180.542969 140.066406 174.449219 145.585938 C 168.363281 151.109375 162.410156 156.773438 156.597656 162.585938 C 150.785156 168.398438 145.121094 174.351562 139.597656 180.441406 C 134.078125 186.53125 128.710938 192.753906 123.496094 199.109375 C 118.28125 205.460938 113.226562 211.941406 108.332031 218.539062 C 103.433594 225.144531 98.703125 231.863281 94.132812 238.699219 C 89.566406 245.53125 85.171875 252.476562 80.945312 259.527344 C 76.722656 266.574219 72.667969 273.726562 68.792969 280.976562 C 64.921875 288.222656 61.226562 295.5625 57.710938 302.996094 C 54.195312 310.425781 50.867188 317.9375 47.71875 325.53125 C 44.578125 333.125 41.617188 340.792969 38.851562 348.53125 C 36.078125 356.273438 33.503906 364.074219 31.113281 371.941406 C 28.730469 379.804688 26.539062 387.726562 24.539062 395.699219 C 22.542969 403.675781 20.742188 411.691406 19.140625 419.753906 C 17.535156 427.8125 16.132812 435.914062 14.925781 444.042969 C 13.722656 452.175781 12.714844 460.328125 11.90625 468.507812 C 11.101562 476.691406 10.496094 484.882812 10.09375 493.09375 C 9.6875 501.304688 9.488281 509.519531 9.488281 517.738281 C 9.488281 525.960938 9.6875 534.171875 10.09375 542.386719 C 10.496094 550.59375 11.101562 558.792969 11.90625 566.96875 C 12.714844 575.148438 13.722656 583.304688 14.925781 591.433594 C 16.132812 599.566406 17.535156 607.664062 19.140625 615.726562 C 20.742188 623.785156 22.542969 631.804688 24.539062 639.777344 C 26.539062 647.753906 28.730469 655.671875 31.113281 663.539062 C 33.503906 671.402344 36.078125 679.207031 38.851562 686.945312 C 41.617188 694.683594 44.578125 702.355469 47.71875 709.945312 C 50.867188 717.542969 54.195312 725.050781 57.710938 732.484375 C 61.226562 739.917969 64.921875 747.253906 68.792969 754.503906 C 72.667969 761.75 76.722656 768.902344 80.945312 775.953125 C 85.171875 783 89.566406 789.945312 94.132812 796.78125 C 98.703125 803.617188 103.433594 810.332031 108.332031 816.9375 C 113.226562 823.539062 118.28125 830.019531 123.496094 836.367188 C 128.710938 842.722656 134.078125 848.945312 139.597656 855.039062 C 145.121094 861.128906 150.785156 867.082031 156.597656 872.894531 C 162.410156 878.703125 168.363281 884.367188 174.449219 889.890625 C 180.542969 895.410156 186.765625 900.777344 193.121094 905.992188 C 199.472656 911.207031 205.949219 916.261719 212.550781 921.160156 C 219.15625 926.058594 225.875 930.789062 232.707031 935.355469 C 239.542969 939.921875 246.488281 944.316406 253.539062 948.542969 C 260.585938 952.769531 267.738281 956.820312 274.984375 960.695312 C 282.234375 964.566406 289.574219 968.265625 297.003906 971.777344 C 304.4375 975.292969 311.949219 978.625 319.542969 981.769531 C 327.136719 984.914062 334.804688 987.871094 342.542969 990.636719 C 350.28125 993.410156 358.085938 995.984375 365.949219 998.375 C 373.816406 1000.761719 381.734375 1002.949219 389.710938 1004.949219 C 397.683594 1006.945312 405.703125 1008.746094 413.761719 1010.351562 C 421.824219 1011.953125 429.921875 1013.355469 438.054688 1014.5625 C 446.183594 1015.769531 454.339844 1016.777344 462.519531 1017.582031 C 470.703125 1018.386719 478.894531 1018.992188 487.105469 1019.394531 C 495.316406 1019.800781 503.53125 1020 511.75 1020 Z M 511.75 1020 "/></g><path style=" stroke:none;fill-rule:nonzero;fill:#ffffff;fill-opacity:1;" d="M 825.3125 607.179688 C 825.3125 596.25 821.144531 585.324219 812.816406 576.984375 L 511.75 275.953125 L 210.714844 576.984375 C 194.042969 593.660156 194.03125 620.703125 210.714844 637.398438 C 227.386719 654.074219 254.449219 654.074219 271.117188 637.398438 L 511.75 396.753906 L 752.394531 637.398438 C 769.078125 654.074219 796.121094 654.074219 812.816406 637.398438 C 821.144531 629.058594 825.3125 618.121094 825.3125 607.179688 Z M 825.3125 607.179688 "/></g></svg>