<svg xmlns="http://www.w3.org/2000/svg" xmlns:xlink="http://www.w3.org/1999/xlink" width="1366" zoomAndPan="magnify" viewBox="0 0 1024.5 1005.75" height="1341" preserveAspectRatio="xMidYMid meet" version="1.2"><defs><clipPath id="4dd0e5fc09"><path d="M 497 590 L 530 590 L 530 1005.378906 L 497 1005.378906 Z M 497 590 "/></clipPath><clipPath id="5dd9270b7e"><path d="M 81.59375 258 L 946 258 L 946 1005.378906 L 81.59375 1005.378906 Z M 81.59375 258 "/></clipPath><clipPath id="bfbb68efa5"><path d="M 0.871094 339 L 1024 339 L 1024 1005.378906 L 0.871094 1005.378906 Z M 0.871094 339 "/></clipPath><clipPath id="b57ef50a0f"><path d="M 497 1.050781 L 530 1.050781 L 530 89 L 497 89 Z M 497 1.050781 "/></clipPath></defs><g id="6f65cc57b9"><g clip-rule="nonzero" clip-path="url(#4dd0e5fc09)"><path style=" stroke:none;fill-rule:evenodd;fill:#212121;fill-opacity:1;" d="M 513.929688 1009.972656 C 505.078125 1009.972656 497.894531 1002.78125 497.894531 993.925781 L 497.894531 606.367188 C 497.894531 597.511719 505.078125 590.328125 513.929688 590.328125 C 522.78125 590.328125 529.957031 597.511719 529.957031 606.367188 L 529.957031 993.925781 C 529.957031 1002.78125 522.78125 1009.972656 513.929688 1009.972656 "/></g><g clip-rule="nonzero" clip-path="url(#5dd9270b7e)"><path style=" stroke:none;fill-rule:evenodd;fill:#212121;fill-opacity:1;" d="M 513.929688 1009.972656 C 505.078125 1009.972656 497.894531 1002.792969 497.894531 993.9375 C 497.894531 959.191406 469.644531 930.925781 434.925781 930.925781 L 97.96875 930.925781 C 89.105469 930.925781 81.929688 923.746094 81.929688 914.890625 L 81.929688 274.589844 C 81.929688 265.734375 89.105469 258.554688 97.96875 258.554688 L 343.789062 258.554688 C 352.636719 258.554688 359.816406 265.734375 359.816406 274.589844 C 359.816406 283.457031 352.636719 290.636719 343.789062 290.636719 L 113.992188 290.636719 L 113.992188 898.84375 L 434.925781 898.84375 C 467.816406 898.84375 496.859375 915.652344 513.929688 941.132812 C 530.992188 915.652344 560.042969 898.84375 592.933594 898.84375 L 913.855469 898.84375 L 913.855469 290.636719 L 683.800781 290.636719 C 674.941406 290.636719 667.765625 283.457031 667.765625 274.589844 C 667.765625 265.734375 674.941406 258.554688 683.800781 258.554688 L 929.894531 258.554688 C 938.746094 258.554688 945.933594 265.734375 945.933594 274.589844 L 945.933594 914.890625 C 945.933594 923.746094 938.746094 930.925781 929.894531 930.925781 L 592.933594 930.925781 C 558.207031 930.925781 529.957031 959.191406 529.957031 993.9375 C 529.957031 1002.792969 522.78125 1009.972656 513.929688 1009.972656 "/></g><g clip-rule="nonzero" clip-path="url(#bfbb68efa5)"><path style=" stroke:none;fill-rule:evenodd;fill:#212121;fill-opacity:1;" d="M 1010.953125 1009.972656 L 16.90625 1009.972656 C 8.046875 1009.972656 0.871094 1002.78125 0.871094 993.925781 L 0.871094 355.691406 C 0.871094 346.828125 8.046875 339.648438 16.90625 339.648438 L 97.96875 339.648438 C 106.816406 339.648438 113.992188 346.828125 113.992188 355.691406 C 113.992188 364.546875 106.816406 371.730469 97.96875 371.730469 L 32.933594 371.730469 L 32.933594 977.882812 L 994.925781 977.882812 L 994.925781 371.730469 L 929.894531 371.730469 C 921.042969 371.730469 913.855469 364.546875 913.855469 355.691406 C 913.855469 346.828125 921.042969 339.648438 929.894531 339.648438 L 1010.953125 339.648438 C 1019.816406 339.648438 1026.992188 346.828125 1026.992188 355.691406 L 1026.992188 993.925781 C 1026.992188 1002.78125 1019.816406 1009.972656 1010.953125 1009.972656 "/></g><path style=" stroke:none;fill-rule:evenodd;fill:#212121;fill-opacity:1;" d="M 280.09375 399.371094 L 197.816406 399.371094 C 188.964844 399.371094 181.789062 392.191406 181.789062 383.335938 C 181.789062 374.480469 188.964844 367.300781 197.816406 367.300781 L 280.09375 367.300781 C 288.941406 367.300781 296.121094 374.480469 296.121094 383.335938 C 296.121094 392.191406 288.941406 399.371094 280.09375 399.371094 "/><path style=" stroke:none;fill-rule:evenodd;fill:#212121;fill-opacity:1;" d="M 321.648438 483.945312 L 197.824219 483.945312 C 188.964844 483.945312 181.789062 476.765625 181.789062 467.910156 C 181.789062 459.042969 188.964844 451.863281 197.824219 451.863281 L 321.648438 451.863281 C 330.511719 451.863281 337.6875 459.042969 337.6875 467.910156 C 337.6875 476.765625 330.511719 483.945312 321.648438 483.945312 "/><path style=" stroke:none;fill-rule:evenodd;fill:#212121;fill-opacity:1;" d="M 350.09375 568.496094 L 197.824219 568.496094 C 188.964844 568.496094 181.789062 561.316406 181.789062 552.449219 C 181.789062 543.59375 188.964844 536.414062 197.824219 536.414062 L 350.09375 536.414062 C 358.945312 536.414062 366.121094 543.59375 366.121094 552.449219 C 366.121094 561.316406 358.945312 568.496094 350.09375 568.496094 "/><path style=" stroke:none;fill-rule:evenodd;fill:#212121;fill-opacity:1;" d="M 414.070312 653.058594 L 197.824219 653.058594 C 188.964844 653.058594 181.789062 645.878906 181.789062 637.011719 C 181.789062 628.15625 188.964844 620.976562 197.824219 620.976562 L 414.070312 620.976562 C 422.921875 620.976562 430.097656 628.15625 430.097656 637.011719 C 430.097656 645.878906 422.921875 653.058594 414.070312 653.058594 "/><path style=" stroke:none;fill-rule:evenodd;fill:#212121;fill-opacity:1;" d="M 414.070312 737.621094 L 197.824219 737.621094 C 188.964844 737.621094 181.789062 730.429688 181.789062 721.574219 C 181.789062 712.707031 188.964844 705.527344 197.824219 705.527344 L 414.070312 705.527344 C 422.921875 705.527344 430.097656 712.707031 430.097656 721.574219 C 430.097656 730.429688 422.921875 737.621094 414.070312 737.621094 "/><path style=" stroke:none;fill-rule:evenodd;fill:#212121;fill-opacity:1;" d="M 414.070312 822.171875 L 197.824219 822.171875 C 188.964844 822.171875 181.789062 814.992188 181.789062 806.125 C 181.789062 797.269531 188.964844 790.089844 197.824219 790.089844 L 414.070312 790.089844 C 422.921875 790.089844 430.097656 797.269531 430.097656 806.125 C 430.097656 814.992188 422.921875 822.171875 414.070312 822.171875 "/><path style=" stroke:none;fill-rule:evenodd;fill:#212121;fill-opacity:1;" d="M 830.035156 399.371094 L 747.507812 399.371094 C 738.644531 399.371094 731.46875 392.191406 731.46875 383.335938 C 731.46875 374.480469 738.644531 367.300781 747.507812 367.300781 L 830.035156 367.300781 C 838.886719 367.300781 846.074219 374.480469 846.074219 383.335938 C 846.074219 392.191406 838.886719 399.371094 830.035156 399.371094 "/><path style=" stroke:none;fill-rule:evenodd;fill:#212121;fill-opacity:1;" d="M 830.035156 483.945312 L 706.199219 483.945312 C 697.351562 483.945312 690.164062 476.765625 690.164062 467.910156 C 690.164062 459.042969 697.351562 451.863281 706.199219 451.863281 L 830.035156 451.863281 C 838.886719 451.863281 846.074219 459.042969 846.074219 467.910156 C 846.074219 476.765625 838.886719 483.945312 830.035156 483.945312 "/><path style=" stroke:none;fill-rule:evenodd;fill:#212121;fill-opacity:1;" d="M 830.035156 568.496094 L 677.757812 568.496094 C 668.90625 568.496094 661.730469 561.316406 661.730469 552.449219 C 661.730469 543.59375 668.90625 536.414062 677.757812 536.414062 L 830.035156 536.414062 C 838.886719 536.414062 846.074219 543.59375 846.074219 552.449219 C 846.074219 561.316406 838.886719 568.496094 830.035156 568.496094 "/><path style=" stroke:none;fill-rule:evenodd;fill:#212121;fill-opacity:1;" d="M 830.035156 653.058594 L 613.777344 653.058594 C 604.929688 653.058594 597.75 645.878906 597.75 637.011719 C 597.75 628.15625 604.929688 620.976562 613.777344 620.976562 L 830.035156 620.976562 C 838.886719 620.976562 846.074219 628.15625 846.074219 637.011719 C 846.074219 645.878906 838.886719 653.058594 830.035156 653.058594 "/><path style=" stroke:none;fill-rule:evenodd;fill:#212121;fill-opacity:1;" d="M 830.035156 737.621094 L 613.777344 737.621094 C 604.929688 737.621094 597.75 730.429688 597.75 721.574219 C 597.75 712.707031 604.929688 705.527344 613.777344 705.527344 L 830.035156 705.527344 C 838.886719 705.527344 846.074219 712.707031 846.074219 721.574219 C 846.074219 730.429688 838.886719 737.621094 830.035156 737.621094 "/><path style=" stroke:none;fill-rule:evenodd;fill:#212121;fill-opacity:1;" d="M 830.035156 822.171875 L 613.777344 822.171875 C 604.929688 822.171875 597.75 814.992188 597.75 806.125 C 597.75 797.269531 604.929688 790.089844 613.777344 790.089844 L 830.035156 790.089844 C 838.886719 790.089844 846.074219 797.269531 846.074219 806.125 C 846.074219 814.992188 838.886719 822.171875 830.035156 822.171875 "/><path style=" stroke:none;fill-rule:evenodd;fill:#212121;fill-opacity:1;" d="M 571.382812 561.902344 L 456.195312 561.902344 C 434.785156 561.902344 417.367188 544.484375 417.367188 523.054688 L 417.367188 477.132812 C 417.367188 468.277344 424.554688 461.097656 433.402344 461.097656 L 594.183594 461.097656 C 603.035156 461.097656 610.210938 468.277344 610.210938 477.132812 L 610.210938 523.054688 C 610.210938 544.476562 592.792969 561.902344 571.382812 561.902344 Z M 449.429688 493.179688 L 449.429688 523.054688 C 449.429688 526.785156 452.464844 529.820312 456.195312 529.820312 L 571.382812 529.820312 C 575.113281 529.820312 578.148438 526.785156 578.148438 523.054688 L 578.148438 493.179688 L 449.429688 493.179688 "/><path style=" stroke:none;fill-rule:evenodd;fill:#212121;fill-opacity:1;" d="M 514.636719 622.410156 L 512.953125 622.410156 C 477.984375 622.410156 449.539062 593.941406 449.539062 558.957031 L 449.539062 546.660156 C 449.539062 537.796875 456.726562 530.617188 465.578125 530.617188 C 474.429688 530.617188 481.617188 537.796875 481.617188 546.660156 L 481.617188 558.957031 C 481.617188 576.253906 495.675781 590.328125 512.953125 590.328125 L 514.636719 590.328125 C 531.914062 590.328125 545.984375 576.253906 545.984375 558.957031 L 545.984375 546.660156 C 545.984375 537.796875 553.160156 530.617188 562.011719 530.617188 C 570.875 530.617188 578.050781 537.796875 578.050781 546.660156 L 578.050781 558.957031 C 578.050781 593.941406 549.605469 622.410156 514.636719 622.410156 "/><path style=" stroke:none;fill-rule:evenodd;fill:#212121;fill-opacity:1;" d="M 590.347656 493.179688 L 437.253906 493.179688 C 416.171875 493.179688 398.066406 478.984375 393.238281 458.664062 C 390.085938 445.410156 383.539062 432.964844 374.296875 422.6875 C 343.320312 388.222656 326.261719 343.683594 326.261719 297.285156 C 326.261719 247.675781 345.429688 200.898438 380.234375 165.574219 C 414.996094 130.292969 461.390625 110.4375 510.875 109.675781 C 613.769531 108.089844 699.175781 190.484375 701.296875 293.335938 C 702.277344 341.214844 685.238281 387.15625 653.304688 422.6875 C 644.0625 432.964844 637.503906 445.410156 634.363281 458.664062 C 629.523438 478.984375 611.417969 493.179688 590.347656 493.179688 Z M 513.777344 141.738281 C 512.972656 141.738281 512.167969 141.738281 511.363281 141.757812 C 426.976562 143.054688 358.324219 212.820312 358.324219 297.285156 C 358.324219 335.753906 372.472656 372.664062 398.140625 401.230469 C 410.960938 415.496094 420.050781 432.78125 424.445312 451.230469 C 425.792969 456.953125 431.1875 461.097656 437.253906 461.097656 L 590.347656 461.097656 C 596.414062 461.097656 601.796875 456.945312 603.167969 451.230469 C 607.546875 432.78125 616.636719 415.496094 629.457031 401.230469 C 655.921875 371.78125 670.046875 333.695312 669.230469 294 C 667.492188 209.546875 597.992188 141.738281 513.777344 141.738281 "/><path style=" stroke:none;fill-rule:evenodd;fill:#212121;fill-opacity:1;" d="M 549.269531 493.191406 C 540.417969 493.191406 533.242188 486.011719 533.242188 477.144531 L 533.242188 352.503906 L 494.359375 352.503906 L 494.359375 477.144531 C 494.359375 486.011719 487.183594 493.191406 478.320312 493.191406 C 469.46875 493.191406 462.292969 486.011719 462.292969 477.144531 L 462.292969 336.46875 C 462.292969 327.613281 469.46875 320.421875 478.320312 320.421875 L 549.269531 320.421875 C 558.121094 320.421875 565.304688 327.613281 565.304688 336.46875 L 565.304688 477.144531 C 565.304688 486.011719 558.121094 493.191406 549.269531 493.191406 "/><path style=" stroke:none;fill-rule:evenodd;fill:#212121;fill-opacity:1;" d="M 549.269531 352.503906 L 478.320312 352.503906 C 472.984375 352.503906 467.980469 349.839844 465.011719 345.402344 C 462.03125 340.964844 461.457031 335.328125 463.488281 330.390625 L 498.957031 243.804688 C 501.425781 237.789062 507.289062 233.847656 513.800781 233.847656 C 520.300781 233.847656 526.164062 237.789062 528.632812 243.804688 L 564.097656 330.390625 C 566.132812 335.328125 565.554688 340.964844 562.589844 345.402344 C 559.609375 349.839844 554.617188 352.503906 549.269531 352.503906 Z M 502.21875 320.421875 L 525.371094 320.421875 L 513.789062 292.183594 Z M 502.21875 320.421875 "/><g clip-rule="nonzero" clip-path="url(#b57ef50a0f)"><path style=" stroke:none;fill-rule:evenodd;fill:#212121;fill-opacity:1;" d="M 513.929688 88.007812 C 505.078125 88.007812 497.894531 80.828125 497.894531 71.960938 L 497.894531 17.085938 C 497.894531 8.230469 505.078125 1.039062 513.929688 1.039062 C 522.78125 1.039062 529.957031 8.230469 529.957031 17.085938 L 529.957031 71.960938 C 529.957031 80.828125 522.78125 88.007812 513.929688 88.007812 "/></g><path style=" stroke:none;fill-rule:evenodd;fill:#212121;fill-opacity:1;" d="M 398.152344 119.054688 C 392.609375 119.054688 387.226562 116.183594 384.246094 111.027344 L 356.824219 63.507812 C 352.398438 55.835938 355.03125 46.023438 362.695312 41.597656 C 370.363281 37.15625 380.167969 39.789062 384.59375 47.460938 L 412.027344 94.992188 C 416.453125 102.660156 413.820312 112.472656 406.15625 116.902344 C 403.632812 118.359375 400.871094 119.054688 398.152344 119.054688 "/><path style=" stroke:none;fill-rule:evenodd;fill:#212121;fill-opacity:1;" d="M 313.355469 203.867188 C 310.636719 203.867188 307.882812 203.171875 305.351562 201.710938 L 257.847656 174.277344 C 250.179688 169.847656 247.550781 160.035156 251.972656 152.367188 C 256.398438 144.683594 266.207031 142.0625 273.882812 146.492188 L 321.390625 173.929688 C 329.054688 178.355469 331.6875 188.167969 327.261719 195.839844 C 324.28125 200.984375 318.898438 203.867188 313.355469 203.867188 "/><path style=" stroke:none;fill-rule:evenodd;fill:#212121;fill-opacity:1;" d="M 714.507812 203.867188 C 708.960938 203.867188 703.570312 200.984375 700.601562 195.839844 C 696.175781 188.167969 698.808594 178.355469 706.472656 173.929688 L 753.976562 146.492188 C 761.644531 142.0625 771.449219 144.695312 775.875 152.367188 C 780.3125 160.035156 777.679688 169.847656 770.003906 174.277344 L 722.511719 201.710938 C 719.976562 203.171875 717.226562 203.867188 714.507812 203.867188 "/><path style=" stroke:none;fill-rule:evenodd;fill:#212121;fill-opacity:1;" d="M 629.707031 119.054688 C 626.988281 119.054688 624.226562 118.359375 621.707031 116.902344 C 614.039062 112.472656 611.410156 102.660156 615.835938 94.992188 L 643.257812 47.460938 C 647.679688 39.789062 657.5 37.167969 665.164062 41.597656 C 672.832031 46.023438 675.460938 55.835938 671.027344 63.507812 L 643.605469 111.027344 C 640.636719 116.171875 635.242188 119.054688 629.707031 119.054688 "/></g></svg>