<svg xmlns="http://www.w3.org/2000/svg" xmlns:xlink="http://www.w3.org/1999/xlink" width="1366" zoomAndPan="magnify" viewBox="0 0 1024.5 1005.75" height="1341" preserveAspectRatio="xMidYMid meet" version="1.2"><defs><clipPath id="18c6f6c27a"><path d="M 72 85 L 1004.441406 85 L 1004.441406 1005.378906 L 72 1005.378906 Z M 72 85 "/></clipPath><clipPath id="7aa217b884"><path d="M 19.421875 0.121094 L 718 0.121094 L 718 698 L 19.421875 698 Z M 19.421875 0.121094 "/></clipPath></defs><g id="f409df7e58"><g clip-rule="nonzero" clip-path="url(#18c6f6c27a)"><path style=" stroke:none;fill-rule:nonzero;fill:#231f20;fill-opacity:1;" d="M 532.445312 1005.378906 C 312.957031 1005.378906 124.242188 855.617188 72.957031 642.253906 C 70.90625 631.996094 77.0625 619.6875 87.316406 617.636719 C 97.574219 615.585938 109.882812 621.738281 111.933594 631.996094 C 159.113281 826.894531 331.417969 964.347656 532.445312 964.347656 C 600.136719 964.347656 665.777344 947.9375 727.316406 917.164062 L 733.472656 913.058594 C 778.597656 890.492188 817.574219 859.71875 852.445312 820.742188 C 854.496094 818.6875 856.546875 816.636719 856.546875 816.636719 C 924.238281 740.730469 963.214844 638.152344 963.214844 533.523438 C 963.214844 348.882812 844.238281 184.761719 669.882812 125.265625 C 659.625 121.160156 653.472656 110.902344 657.574219 98.59375 C 661.675781 88.335938 671.933594 82.183594 684.242188 86.285156 C 875.007812 149.882812 1004.238281 330.417969 1004.238281 533.523438 C 1004.238281 648.410156 963.214844 759.195312 887.316406 845.359375 C 885.265625 847.410156 883.214844 849.460938 881.164062 851.511719 C 844.238281 892.542969 801.164062 925.371094 751.933594 952.039062 L 745.777344 956.144531 C 680.136719 988.96875 608.34375 1005.378906 532.445312 1005.378906 Z M 532.445312 1005.378906 "/></g><path style=" stroke:none;fill-rule:nonzero;fill:#231f20;fill-opacity:1;" d="M 525.175781 640.625 L 557.121094 614.882812 L 674.234375 760.261719 L 642.289062 786.003906 Z M 525.175781 640.625 "/><path style=" stroke:none;fill-rule:nonzero;fill:#231f20;fill-opacity:1;" d="M 588.960938 589.484375 L 620.910156 563.742188 L 738.023438 709.117188 L 706.074219 734.863281 Z M 588.960938 589.484375 "/><path style=" stroke:none;fill-rule:nonzero;fill:#231f20;fill-opacity:1;" d="M 721.164062 949.988281 L 624.753906 828.945312 C 618.597656 820.742188 614.496094 810.484375 616.546875 798.171875 C 618.597656 787.914062 622.703125 777.65625 630.90625 771.503906 L 727.316406 693.542969 C 745.777344 679.183594 770.394531 681.234375 784.753906 699.699219 L 885.265625 822.792969 L 852.445312 849.460938 L 751.933594 726.367188 L 655.523438 802.277344 L 751.933594 923.316406 Z M 721.164062 949.988281 "/><g clip-rule="nonzero" clip-path="url(#7aa217b884)"><path style=" stroke:none;fill-rule:nonzero;fill:#231f20;fill-opacity:1;" d="M 368.34375 697.648438 C 175.523438 697.648438 19.625 541.730469 19.625 348.882812 C 19.625 156.039062 175.523438 0.121094 368.34375 0.121094 C 561.164062 0.121094 717.0625 156.039062 717.0625 348.882812 C 717.0625 541.730469 561.164062 697.648438 368.34375 697.648438 Z M 368.34375 41.152344 C 198.085938 41.152344 60.652344 178.605469 60.652344 348.882812 C 60.652344 519.164062 198.085938 656.617188 368.34375 656.617188 C 538.597656 656.617188 676.035156 519.164062 676.035156 348.882812 C 676.035156 178.605469 538.597656 41.152344 368.34375 41.152344 Z M 368.34375 41.152344 "/></g><path style=" stroke:none;fill-rule:nonzero;fill:#231f20;fill-opacity:1;" d="M 368.34375 615.585938 C 358.085938 615.585938 349.882812 615.585938 339.625 613.535156 C 267.832031 605.328125 204.242188 570.453125 161.164062 515.058594 C 116.035156 459.667969 95.523438 389.914062 103.726562 320.164062 C 111.933594 248.359375 146.804688 184.761719 202.1875 141.675781 C 257.574219 96.542969 327.316406 76.027344 397.0625 84.234375 C 468.855469 92.441406 532.445312 127.316406 575.523438 182.707031 C 620.652344 238.101562 641.164062 307.851562 632.957031 377.605469 C 624.753906 449.410156 589.882812 513.007812 534.496094 556.089844 C 487.316406 595.070312 429.882812 615.585938 368.34375 615.585938 Z M 368.34375 123.214844 C 317.0625 123.214844 267.832031 139.625 226.804688 172.449219 C 179.625 209.378906 150.90625 264.769531 144.753906 324.265625 C 138.597656 383.761719 155.007812 443.253906 193.984375 490.441406 C 230.90625 537.625 286.292969 566.347656 345.777344 572.503906 C 405.265625 578.65625 464.753906 562.246094 511.933594 523.265625 C 559.113281 486.335938 587.828125 430.945312 593.984375 371.449219 C 600.136719 311.957031 583.726562 252.460938 544.753906 205.277344 C 507.828125 158.089844 452.445312 129.367188 392.957031 123.214844 C 384.753906 123.214844 376.546875 123.214844 368.34375 123.214844 Z M 368.34375 123.214844 "/><path style=" stroke:none;fill-rule:nonzero;fill:#231f20;fill-opacity:1;" d="M 368.34375 513.007812 C 278.085938 513.007812 204.242188 439.152344 204.242188 348.882812 C 204.242188 336.574219 212.445312 328.367188 224.753906 328.367188 C 237.0625 328.367188 245.265625 336.574219 245.265625 348.882812 C 245.265625 416.585938 300.652344 471.976562 368.34375 471.976562 C 380.652344 471.976562 388.855469 480.183594 388.855469 492.492188 C 388.855469 504.800781 380.652344 513.007812 368.34375 513.007812 Z M 368.34375 513.007812 "/></g></svg>