<svg xmlns="http://www.w3.org/2000/svg" xmlns:xlink="http://www.w3.org/1999/xlink" width="1366" zoomAndPan="magnify" viewBox="0 0 1024.5 1005.75" height="1341" preserveAspectRatio="xMidYMid meet" version="1.2"><defs><clipPath id="ead538cc3e"><path d="M 53 13.148438 L 1020 13.148438 L 1020 992 L 53 992 Z M 53 13.148438 "/></clipPath></defs><g id="0311c918d4"><g clip-rule="nonzero" clip-path="url(#ead538cc3e)"><path style=" stroke:none;fill-rule:evenodd;fill:#000000;fill-opacity:1;" d="M 758.113281 388.84375 L 753.347656 438.710938 L 798.722656 417.476562 Z M 949.597656 119.546875 C 947.332031 118.148438 945.667969 116.460938 941.527344 117.175781 C 938.355469 117.722656 936.917969 119.226562 935.203125 121.503906 L 916.109375 148.574219 L 972.03125 188 L 991.5625 160.304688 C 994.425781 156.25 993.457031 150.46875 989.390625 147.601562 Z M 503.804688 137.765625 L 555.503906 137.765625 C 562.546875 137.765625 568.355469 131.960938 568.355469 124.917969 L 568.355469 61.867188 Z M 385.746094 624.367188 L 275.167969 624.367188 C 265.253906 624.367188 259.855469 636.507812 267.136719 643.789062 C 269.207031 645.859375 272.050781 647.144531 275.167969 647.144531 L 385.746094 647.144531 C 395.65625 647.144531 401.0625 635.003906 393.78125 627.71875 C 391.710938 625.648438 388.863281 624.363281 385.746094 624.363281 Z M 275.167969 598.324219 L 385.746094 598.324219 C 386.984375 598.324219 388.214844 598.386719 389.421875 598.507812 C 396.34375 537.710938 431.09375 545.851562 431.09375 486.613281 C 431.09375 431.039062 386.039062 385.992188 330.457031 385.992188 C 274.875 385.992188 229.820312 431.039062 229.820312 486.613281 C 229.820312 545.851562 264.566406 537.710938 271.492188 598.507812 C 272.699219 598.386719 273.925781 598.324219 275.167969 598.324219 Z M 296.625 673.1875 L 296.625 686.863281 C 296.625 691.699219 299.96875 696.203125 304.605469 696.203125 L 356.308594 696.203125 C 360.945312 696.203125 364.292969 691.699219 364.292969 686.863281 L 364.292969 673.1875 Z M 390.335938 672.902344 C 390.335938 687.792969 391.800781 699.632812 380.605469 711.550781 C 374.410156 718.144531 365.8125 722.242188 356.308594 722.242188 L 304.605469 722.242188 C 285.546875 722.242188 270.582031 705.914062 270.582031 686.863281 L 270.582031 672.902344 C 252.011719 670.613281 237.734375 654.714844 237.734375 635.753906 C 237.734375 626.632812 241.03125 618.25 246.488281 611.746094 C 245.171875 581.640625 235.996094 569.171875 227.019531 557.011719 L 226.996094 557.03125 C 215.242188 541.109375 203.777344 525.570312 203.777344 486.613281 C 203.777344 416.664062 260.496094 359.953125 330.457031 359.953125 C 400.417969 359.953125 457.140625 416.664062 457.140625 486.613281 C 457.140625 525.570312 445.671875 541.109375 433.921875 557.03125 L 433.894531 557.011719 C 424.921875 569.171875 415.742188 581.640625 414.425781 611.746094 C 419.886719 618.25 423.179688 626.632812 423.179688 635.753906 C 423.179688 654.714844 408.902344 670.613281 390.335938 672.902344 Z M 567.878906 741.835938 L 567.839844 741.789062 C 567.941406 741.960938 568 742.058594 567.878906 741.835938 Z M 114.109375 965.800781 C 138.261719 915.714844 152.738281 868.519531 155.261719 820.695312 C 158.117188 766.527344 145.675781 712.082031 114.652344 652.433594 C 31.917969 493.339844 95.378906 326.675781 284.855469 310.207031 C 428.386719 297.730469 522.722656 340.847656 553.535156 487.734375 C 559.722656 517.238281 555.15625 527.691406 556.734375 554.570312 C 557.5625 568.636719 576.996094 594.28125 592.628906 614.902344 C 599.113281 623.460938 604.878906 631.066406 607.714844 635.605469 C 619.839844 655.003906 595.0625 657.710938 580.519531 673.460938 C 567.265625 687.816406 574.945312 705.488281 574.804688 705.980469 C 574.683594 706.417969 565.308594 712.453125 562.148438 720.652344 C 558.152344 731.015625 562.4375 735.820312 567.488281 741.398438 C 566.605469 748.539062 560.449219 752.015625 558.859375 766.871094 C 556.675781 787.253906 560.660156 813.367188 541.90625 822.503906 C 515.144531 835.535156 474.914062 824.496094 446.769531 853.464844 C 417.488281 883.601562 410.152344 925.773438 410.621094 965.804688 L 114.109375 965.804688 Z M 424.03125 991.84375 L 93.054688 991.84375 C 83.765625 991.84375 76.261719 981.847656 82.09375 971.789062 C 109.960938 918.179688 126.710938 868.84375 129.316406 819.375 C 131.925781 769.921875 120.355469 719.808594 91.558594 664.4375 C -0.0625 488.261719 75.28125 302.289062 282.617188 284.269531 C 354.226562 278.039062 414.601562 285.347656 462.652344 310.078125 L 462.652344 150.789062 C 462.652344 147.128906 463.960938 144.347656 466.328125 141.722656 L 570.921875 18.738281 C 573.296875 15.546875 577.09375 13.480469 581.375 13.480469 C 581.375 13.480469 938.269531 13.480469 938.269531 13.480469 C 955.445312 13.480469 969.449219 27.488281 969.449219 44.65625 L 969.449219 101.738281 L 1004.34375 126.34375 C 1020.152344 137.488281 1023.980469 159.4375 1012.828125 175.257812 L 969.449219 236.761719 L 969.449219 616.417969 C 969.449219 633.589844 955.441406 647.589844 938.269531 647.589844 L 639.367188 647.589844 C 640.292969 671.632812 609.625 680.253906 599.648438 691.0625 C 595.015625 696.078125 610.644531 708.546875 589.453125 727.378906 C 596.546875 737.65625 593.269531 750.628906 587.820312 760.621094 C 583.800781 767.992188 584.226562 773.863281 583.828125 783.300781 C 582.796875 807.40625 581.746094 832.042969 553.300781 845.898438 C 522.019531 861.132812 484.859375 851.53125 465.390625 871.570312 C 438.492188 899.25 435.125 941.53125 437.003906 978.164062 C 437.382812 985.570312 431.453125 991.808594 424.035156 991.808594 L 424.035156 991.84375 Z M 839.585938 257.078125 L 901.128906 169.816406 L 957.050781 209.242188 L 821.359375 401.628906 L 765.441406 362.203125 L 838.65625 258.390625 C 838.992188 257.972656 839.300781 257.535156 839.585938 257.078125 Z M 575.355469 263.277344 L 803.402344 263.277344 L 740.605469 352.316406 L 575.355469 352.316406 C 568.164062 352.316406 562.332031 358.144531 562.332031 365.335938 C 562.332031 372.527344 568.164062 378.355469 575.355469 378.355469 L 733.042969 378.355469 L 725.34375 458.867188 C 725.046875 462 725.890625 464.980469 727.539062 467.394531 L 619.148438 467.394531 C 611.957031 467.394531 606.125 473.222656 606.125 480.414062 C 606.125 487.605469 611.957031 493.4375 619.148438 493.4375 L 852.957031 493.4375 C 860.148438 493.4375 865.976562 487.605469 865.976562 480.414062 C 865.976562 473.222656 860.148438 467.394531 852.957031 467.394531 L 753.25 467.394531 L 829.230469 431.839844 C 831.53125 430.941406 833.597656 429.382812 835.121094 427.21875 L 943.402344 273.691406 L 943.402344 616.421875 C 943.402344 619.214844 941.066406 621.550781 938.269531 621.550781 L 629.585938 621.550781 C 619.804688 606.078125 583.222656 562.363281 582.675781 553.046875 C 581.042969 525.21875 586.015625 516.039062 578.96875 482.449219 C 563.582031 409.078125 533.058594 358.304688 488.695312 326.082031 L 488.695312 163.8125 L 555.503906 163.8125 C 576.925781 163.8125 594.398438 146.339844 594.398438 124.921875 L 594.398438 39.519531 L 938.269531 39.519531 C 941.066406 39.519531 943.402344 41.859375 943.402344 44.65625 L 943.402344 91.027344 C 932.164062 90.949219 921.203125 96.257812 914.410156 105.882812 L 821.769531 237.238281 L 575.355469 237.238281 C 568.164062 237.238281 562.332031 243.066406 562.332031 250.257812 C 562.332031 257.449219 568.164062 263.277344 575.355469 263.277344 Z M 575.355469 263.277344 "/></g></g></svg>