<svg xmlns="http://www.w3.org/2000/svg" xmlns:xlink="http://www.w3.org/1999/xlink" width="1366" zoomAndPan="magnify" viewBox="0 0 1024.5 1005.75" height="1341" preserveAspectRatio="xMidYMid meet" version="1.2"><defs><clipPath id="a854b0aadd"><path d="M 81.625 0.121094 L 942.203125 0.121094 L 942.203125 1005.378906 L 81.625 1005.378906 Z M 81.625 0.121094 "/></clipPath></defs><g id="7c31db0784"><g clip-rule="nonzero" clip-path="url(#a854b0aadd)"><path style=" stroke:none;fill-rule:nonzero;fill:#000000;fill-opacity:1;" d="M 511.914062 147.339844 C 355.308594 147.339844 227.910156 274.761719 227.910156 431.398438 C 227.910156 525.75 273.710938 580.652344 314.113281 629.089844 C 348.804688 670.6875 378.804688 706.675781 372.734375 760.015625 C 359.582031 769.167969 350.949219 784.390625 350.949219 801.589844 C 350.949219 825.214844 367.210938 845.109375 389.144531 850.65625 C 384.140625 858.496094 381.222656 867.816406 381.222656 877.78125 C 381.222656 905.683594 403.925781 928.390625 431.816406 928.390625 L 437.863281 928.390625 L 437.863281 931.246094 C 437.863281 972.074219 471.074219 1005.289062 511.890625 1005.289062 C 552.710938 1005.289062 585.921875 972.074219 585.921875 931.246094 L 585.921875 928.390625 L 591.96875 928.390625 C 619.859375 928.390625 642.5625 905.683594 642.5625 877.78125 C 642.5625 867.816406 639.644531 858.496094 634.640625 850.65625 C 656.550781 845.109375 672.835938 825.214844 672.835938 801.589844 C 672.835938 784.390625 664.203125 769.167969 651.046875 760.035156 C 644.980469 706.695312 674.980469 670.707031 709.671875 629.109375 C 750.074219 580.671875 795.875 525.769531 795.875 431.417969 C 795.917969 274.761719 668.519531 147.339844 511.914062 147.339844 Z M 560.925781 931.222656 C 560.925781 958.246094 538.933594 980.246094 511.914062 980.246094 C 484.894531 980.246094 462.902344 958.246094 462.902344 931.222656 L 462.902344 928.367188 L 560.925781 928.367188 Z M 591.988281 903.347656 L 431.839844 903.347656 C 417.726562 903.347656 406.257812 891.878906 406.257812 877.761719 C 406.257812 863.667969 417.726562 852.175781 431.839844 852.175781 L 591.988281 852.175781 C 606.101562 852.175781 617.566406 863.644531 617.566406 877.761719 C 617.566406 891.878906 606.101562 903.347656 591.988281 903.347656 Z M 622.257812 827.15625 L 401.566406 827.15625 C 387.453125 827.15625 375.988281 815.6875 375.988281 801.570312 C 375.988281 787.476562 387.453125 775.984375 401.566406 775.984375 L 622.257812 775.984375 C 636.371094 775.984375 647.839844 787.453125 647.839844 801.570312 C 647.839844 815.6875 636.371094 827.15625 622.257812 827.15625 Z M 690.492188 613.054688 C 655.988281 654.421875 623.28125 693.664062 625.324219 751.070312 C 624.300781 751.007812 623.28125 750.964844 622.257812 750.964844 L 401.566406 750.964844 C 400.546875 750.964844 399.523438 751.007812 398.503906 751.070312 C 400.546875 693.664062 367.835938 654.402344 333.335938 613.054688 C 293.808594 565.679688 252.925781 516.679688 252.925781 431.375 C 252.925781 288.542969 369.109375 172.339844 511.914062 172.339844 C 654.71875 172.339844 770.902344 288.542969 770.902344 431.375 C 770.902344 516.679688 730.019531 565.679688 690.492188 613.054688 Z M 659.472656 360.710938 L 677.710938 332.476562 C 683.445312 323.59375 682.238281 312.167969 674.753906 304.683594 L 637.75 267.671875 C 630.265625 260.1875 618.839844 258.976562 609.957031 264.710938 L 581.730469 282.957031 C 577.25 280.851562 572.640625 278.933594 567.992188 277.242188 L 560.945312 244.382812 C 558.714844 234.039062 549.792969 226.824219 539.222656 226.824219 L 486.898438 226.824219 C 476.328125 226.824219 467.382812 234.039062 465.171875 244.382812 L 458.128906 277.222656 C 453.476562 278.910156 448.871094 280.808594 444.390625 282.933594 L 416.160156 264.691406 C 407.28125 258.957031 395.855469 260.164062 388.371094 267.652344 L 351.367188 304.664062 C 343.90625 312.148438 342.675781 323.574219 348.429688 332.457031 L 366.667969 360.691406 C 364.5625 365.171875 362.644531 369.800781 360.957031 374.429688 L 328.101562 381.480469 C 317.761719 383.710938 310.546875 392.632812 310.546875 403.207031 L 310.546875 455.542969 C 310.546875 466.113281 317.761719 475.058594 328.101562 477.269531 L 360.957031 484.316406 C 362.644531 488.96875 364.542969 493.574219 366.648438 498.058594 L 348.40625 526.292969 C 342.675781 535.175781 343.882812 546.601562 351.367188 554.085938 L 388.371094 591.097656 C 395.855469 598.582031 407.28125 599.792969 416.160156 594.058594 L 444.390625 575.8125 C 448.871094 577.917969 453.476562 579.835938 458.128906 581.527344 L 465.171875 614.386719 C 467.402344 624.730469 476.328125 631.945312 486.898438 631.945312 L 539.222656 631.945312 C 549.792969 631.945312 558.738281 624.730469 560.945312 614.386719 L 567.992188 581.546875 C 572.621094 579.878906 577.25 577.960938 581.730469 575.835938 L 609.957031 594.078125 C 618.839844 599.835938 630.265625 598.605469 637.75 591.140625 L 674.753906 554.128906 C 682.238281 546.640625 683.445312 535.214844 677.710938 526.332031 L 659.472656 498.101562 C 661.578125 493.617188 663.496094 488.988281 665.164062 484.359375 L 698.019531 477.3125 C 708.359375 475.082031 715.570312 466.15625 715.570312 455.585938 L 715.570312 403.246094 C 715.570312 392.675781 708.359375 383.730469 698.019531 381.519531 L 665.183594 374.472656 C 663.496094 369.824219 661.578125 365.214844 659.472656 360.710938 Z M 690.554688 453.332031 L 658.386719 460.234375 C 650.757812 461.882812 644.667969 467.238281 642.085938 474.621094 C 640.417969 479.375 638.457031 484.109375 636.246094 488.675781 C 632.847656 495.722656 633.347656 503.835938 637.601562 510.402344 L 655.46875 538.050781 L 621.652344 571.871094 L 594.011719 554.003906 C 587.445312 549.75 579.332031 549.25 572.289062 552.648438 C 567.722656 554.859375 562.988281 556.816406 558.234375 558.484375 C 550.878906 561.070312 545.5 567.160156 543.851562 574.792969 L 536.949219 606.964844 L 489.128906 606.964844 L 482.226562 574.792969 C 480.578125 567.160156 475.222656 561.070312 467.84375 558.484375 C 463.089844 556.816406 458.355469 554.859375 453.789062 552.648438 C 446.746094 549.25 438.636719 549.75 432.066406 554.003906 L 404.425781 571.871094 L 370.609375 538.050781 L 388.476562 510.402344 C 392.707031 503.835938 393.230469 495.722656 389.832031 488.675781 C 387.621094 484.109375 385.660156 479.375 383.992188 474.621094 C 381.410156 467.261719 375.320312 461.882812 367.691406 460.234375 L 335.523438 453.332031 L 335.523438 405.5 L 367.691406 398.597656 C 375.320312 396.949219 381.410156 391.570312 383.992188 384.210938 C 385.660156 379.457031 387.621094 374.742188 389.832031 370.15625 C 393.230469 363.109375 392.730469 354.996094 388.476562 348.429688 L 370.609375 320.78125 L 404.425781 286.960938 L 432.066406 304.828125 C 438.636719 309.0625 446.746094 309.582031 453.789062 306.183594 C 458.355469 303.996094 463.089844 302.015625 467.84375 300.347656 C 475.199219 297.761719 480.578125 291.671875 482.226562 284.039062 L 489.128906 251.867188 L 536.949219 251.867188 L 543.851562 284.039062 C 545.5 291.671875 550.855469 297.761719 558.234375 300.347656 C 562.988281 302.015625 567.722656 303.972656 572.289062 306.183594 C 579.332031 309.582031 587.445312 309.082031 594.011719 304.828125 L 621.652344 286.960938 L 655.46875 320.78125 L 637.601562 348.449219 C 633.371094 355.019531 632.847656 363.128906 636.246094 370.175781 C 638.457031 374.742188 640.417969 379.476562 642.085938 384.230469 C 644.667969 391.589844 650.757812 396.972656 658.386719 398.617188 L 690.554688 405.519531 Z M 513.058594 330.164062 C 458.335938 330.164062 413.828125 374.679688 413.828125 429.414062 C 413.828125 484.152344 458.335938 528.667969 513.058594 528.667969 C 567.785156 528.667969 612.292969 484.152344 612.292969 429.414062 C 612.292969 374.679688 567.785156 330.164062 513.058594 330.164062 Z M 513.058594 503.648438 C 472.136719 503.648438 438.84375 470.347656 438.84375 429.414062 C 438.84375 388.484375 472.136719 355.183594 513.058594 355.183594 C 553.984375 355.183594 587.277344 388.484375 587.277344 429.414062 C 587.277344 470.347656 553.984375 503.648438 513.058594 503.648438 Z M 499.40625 88.558594 L 499.40625 12.742188 C 499.40625 5.839844 505.011719 0.230469 511.914062 0.230469 C 518.8125 0.230469 524.421875 5.839844 524.421875 12.742188 L 524.421875 88.558594 C 524.421875 95.460938 518.8125 101.070312 511.914062 101.070312 C 505.011719 101.070312 499.40625 95.460938 499.40625 88.558594 Z M 815.679688 125.132812 C 820.558594 130.011719 820.558594 137.933594 815.679688 142.8125 L 762.082031 196.421875 C 759.644531 198.863281 756.433594 200.09375 753.242188 200.09375 C 750.054688 200.09375 746.84375 198.863281 744.402344 196.421875 C 739.523438 191.542969 739.523438 183.621094 744.402344 178.742188 L 798.003906 125.132812 C 802.859375 120.253906 810.78125 120.253906 815.679688 125.132812 Z M 942.160156 428.269531 C 942.160156 435.171875 936.554688 440.78125 929.652344 440.78125 L 853.871094 440.78125 C 846.972656 440.78125 841.363281 435.171875 841.363281 428.269531 C 841.363281 421.367188 846.972656 415.757812 853.871094 415.757812 L 929.652344 415.757812 C 936.554688 415.757812 942.160156 421.367188 942.160156 428.269531 Z M 261.746094 196.421875 L 208.144531 142.8125 C 203.269531 137.933594 203.269531 130.011719 208.144531 125.132812 C 213.023438 120.253906 220.945312 120.253906 225.84375 125.132812 L 279.445312 178.742188 C 284.324219 183.621094 284.324219 191.542969 279.445312 196.421875 C 277.003906 198.863281 273.792969 200.09375 270.605469 200.09375 C 267.414062 200.09375 264.183594 198.863281 261.746094 196.421875 Z M 182.484375 428.269531 C 182.484375 435.171875 176.875 440.78125 169.976562 440.78125 L 94.171875 440.78125 C 87.273438 440.78125 81.664062 435.171875 81.664062 428.269531 C 81.664062 421.367188 87.273438 415.757812 94.171875 415.757812 L 169.953125 415.757812 C 176.875 415.757812 182.484375 421.367188 182.484375 428.269531 Z M 182.484375 428.269531 "/></g></g></svg>